<?xml version="1.0" encoding="UTF-8" standalone="no"?>
<!-- Created with Inkscape (http://www.inkscape.org/) -->

<svg
   xmlns:dc="http://purl.org/dc/elements/1.1/"
   xmlns:cc="http://creativecommons.org/ns#"
   xmlns:rdf="http://www.w3.org/1999/02/22-rdf-syntax-ns#"
   xmlns:svg="http://www.w3.org/2000/svg"
   xmlns="http://www.w3.org/2000/svg"
   xmlns:sodipodi="http://sodipodi.sourceforge.net/DTD/sodipodi-0.dtd"
   xmlns:inkscape="http://www.inkscape.org/namespaces/inkscape"
   width="17.302565mm"
   height="17.189568mm"
   viewBox="0 0 17.302565 17.189568"
   version="1.1"
   id="svg8"
   inkscape:version="0.92.5 (2060ec1f9f, 2020-04-08)"
   sodipodi:docname="link.svg">
  <defs
     id="defs2" />
  <sodipodi:namedview
     id="base"
     pagecolor="#ffffff"
     bordercolor="#666666"
     borderopacity="1.0"
     inkscape:pageopacity="0.0"
     inkscape:pageshadow="2"
     inkscape:zoom="1.4"
     inkscape:cx="-142.22721"
     inkscape:cy="161.05388"
     inkscape:document-units="mm"
     inkscape:current-layer="layer1"
     showgrid="false"
     fit-margin-top="0.1"
     fit-margin-left="0.1"
     fit-margin-right="0.1"
     fit-margin-bottom="0.1"
     inkscape:window-width="1848"
     inkscape:window-height="1043"
     inkscape:window-x="72"
     inkscape:window-y="0"
     inkscape:window-maximized="1" />
  <metadata
     id="metadata5">
    <rdf:RDF>
      <cc:Work
         rdf:about="">
        <dc:format>image/svg+xml</dc:format>
        <dc:type
           rdf:resource="http://purl.org/dc/dcmitype/StillImage" />
        <dc:title></dc:title>
      </cc:Work>
    </rdf:RDF>
  </metadata>
  <g
     inkscape:label="Layer 1"
     inkscape:groupmode="layer"
     id="layer1"
     transform="translate(-96.32141,-167.71779)">
    <g
       id="g832"
       transform="matrix(0.55527431,0,0,0.55527431,42.881078,82.18858)">
      <path
         inkscape:connector-curvature="0"
         id="path826"
         d="m 102.63408,184.77603 c -0.31968,-0.0305 -0.60729,-0.0969 -0.69974,-0.1617 -0.0863,-0.0605 -0.23297,-0.11015 -0.32585,-0.11039 -0.0929,-2.4e-4 -0.25909,-0.0602 -0.36934,-0.1332 -0.11024,-0.073 -0.2484,-0.13295 -0.30702,-0.13319 -0.0586,-2.4e-4 -0.161,-0.0606 -0.22751,-0.13407 -0.0665,-0.0735 -0.17176,-0.13364 -0.23387,-0.13364 -0.0621,0 -0.16734,-0.0601 -0.23386,-0.13364 -0.0665,-0.0735 -0.14969,-0.13363 -0.18483,-0.13363 -0.11878,0 -0.747022,-0.55248 -1.436923,-1.26365 -0.789464,-0.81379 -0.883894,-0.92039 -0.883894,-0.99778 0,-0.0311 -0.06014,-0.11089 -0.133636,-0.1774 -0.0735,-0.0665 -0.133633,-0.16168 -0.133633,-0.21147 0,-0.0498 -0.06014,-0.14201 -0.133636,-0.20494 -0.0735,-0.0629 -0.133635,-0.16382 -0.133635,-0.2242 0,-0.0604 -0.06014,-0.18622 -0.133633,-0.27966 -0.0735,-0.0934 -0.133636,-0.21069 -0.133636,-0.26057 0,-0.0499 -0.06014,-0.20287 -0.133636,-0.34001 -0.0735,-0.13713 -0.133633,-0.33903 -0.133633,-0.44867 0,-0.10964 -0.05262,-0.32774 -0.11693,-0.48467 -0.165751,-0.40446 -0.164878,-1.94921 0.0013,-2.40911 0.06356,-0.17585 0.115567,-0.40898 0.115567,-0.51808 0,-0.1091 0.06014,-0.31056 0.133633,-0.44769 0.0735,-0.13714 0.133636,-0.30518 0.133636,-0.37342 0,-0.0683 0.06014,-0.20054 0.133636,-0.29398 0.0735,-0.0934 0.133633,-0.21371 0.133633,-0.26727 0,-0.0536 0.06014,-0.17383 0.133636,-0.26727 0.0735,-0.0934 0.133635,-0.22597 0.133635,-0.29451 0,-0.0685 0.0316,-0.12462 0.07023,-0.12462 0.03862,0 0.114197,-0.10524 0.167942,-0.23386 0.05374,-0.12863 0.125349,-0.23386 0.159131,-0.23386 0.03378,0 0.08041,-0.0598 0.103619,-0.13297 0.0734,-0.23125 0.444455,-0.61745 4.240367,-4.41336 3.8687,-3.86871 4.06175,-4.05354 4.59046,-4.39519 0.17785,-0.11492 0.35968,-0.23981 0.40407,-0.27753 0.0444,-0.0377 0.10798,-0.0686 0.14133,-0.0686 0.0333,0 0.13233,-0.056 0.21997,-0.12444 0.0876,-0.0684 0.23452,-0.14717 0.3264,-0.17495 0.0919,-0.0278 0.21214,-0.0887 0.26726,-0.13539 0.0551,-0.0467 0.20547,-0.10661 0.33409,-0.13317 0.12862,-0.0265 0.27897,-0.0864 0.33409,-0.1329 0.0551,-0.0465 0.25056,-0.10567 0.43431,-0.1314 0.18375,-0.0257 0.40068,-0.0896 0.48208,-0.14181 0.21672,-0.13915 2.53499,-0.13353 2.72021,0.007 0.0708,0.0536 0.27321,0.11653 0.44985,0.13996 0.17664,0.0234 0.35544,0.0839 0.39733,0.13438 0.0419,0.0505 0.11563,0.0918 0.16386,0.0918 0.11489,0 0.33465,0.0989 0.66434,0.29904 0.147,0.0892 0.34203,0.20126 0.4334,0.24898 0.0914,0.0477 0.21457,0.13185 0.27379,0.18697 0.0592,0.0551 0.19264,0.16036 0.29649,0.23386 0.28072,0.19868 0.46819,0.36307 0.85366,0.74854 0.33321,0.3332 0.45349,0.47163 0.74854,0.86144 0.0735,0.0971 0.18625,0.23312 0.25056,0.30226 0.0643,0.0691 0.11693,0.17079 0.11693,0.22592 0,0.0551 0.0526,0.15326 0.11693,0.21807 0.17227,0.17362 0.28679,0.46527 0.23533,0.59936 -0.0248,0.0646 -0.58521,0.65737 -1.24539,1.31731 -1.26838,1.26791 -1.29343,1.28247 -1.30714,0.75988 -0.003,-0.0984 -0.0458,-0.22011 -0.0961,-0.27038 -0.0503,-0.0503 -0.1142,-0.16322 -0.14206,-0.25099 -0.0726,-0.2287 -0.60552,-0.97373 -0.92731,-1.29637 -0.30215,-0.30294 -0.76739,-0.63945 -0.88671,-0.64135 -0.042,-8e-4 -0.0926,-0.0435 -0.11241,-0.0951 -0.0198,-0.0517 -0.1358,-0.11558 -0.25771,-0.14203 -0.12192,-0.0265 -0.24171,-0.0796 -0.26621,-0.11814 -0.0622,-0.0978 -0.95011,-0.2671 -1.39204,-0.26535 -0.47834,0.002 -1.20892,0.14022 -1.33635,0.25303 -0.0551,0.0488 -0.18534,0.10998 -0.28937,0.13594 -0.10403,0.026 -0.20497,0.0884 -0.2243,0.13884 -0.0193,0.0504 -0.083,0.0916 -0.14149,0.0916 -0.11906,0 -8.09792,7.94138 -8.09792,8.05989 0,0.0415 -0.0445,0.11238 -0.0988,0.1575 -0.0544,0.0451 -0.13904,0.16155 -0.18816,0.25874 -0.0491,0.0972 -0.12134,0.23686 -0.16047,0.31036 -0.26033,0.48896 -0.345248,0.7841 -0.384491,1.33635 -0.05045,0.70992 0.04243,1.53282 0.191591,1.69765 0.0582,0.0643 0.10583,0.16719 0.10583,0.22861 0,0.0614 0.0601,0.1718 0.13363,0.2453 0.0735,0.0735 0.13363,0.15144 0.13363,0.17321 0,0.13878 1.04929,1.22996 1.18274,1.22996 0.05,0 0.10786,0.044 0.12847,0.0977 0.0206,0.0537 0.10236,0.118 0.18166,0.14282 0.0793,0.0248 0.21587,0.10115 0.30351,0.16959 0.0876,0.0684 0.23881,0.12445 0.33593,0.12445 0.0971,0 0.25091,0.0526 0.34178,0.11693 0.13076,0.0925 0.3045,0.11693 0.83338,0.11693 0.52887,0 0.70261,-0.0244 0.83338,-0.11693 0.0909,-0.0643 0.24466,-0.11693 0.34178,-0.11693 0.0971,0 0.25302,-0.0601 0.34646,-0.13364 0.0934,-0.0735 0.21371,-0.13364 0.26727,-0.13364 0.0536,0 0.17383,-0.0601 0.26727,-0.13363 0.0934,-0.0735 0.19269,-0.13363 0.22056,-0.13363 0.076,0 0.1257,-0.047 2.00374,-1.89478 0.95778,-0.94235 1.77535,-1.71336 1.81683,-1.71336 0.0415,0 0.0926,0.0277 0.11355,0.0617 0.0209,0.0339 0.13378,0.0827 0.25072,0.10838 0.11693,0.0257 0.25187,0.086 0.29987,0.13396 0.048,0.048 0.26018,0.10657 0.47151,0.13018 0.21133,0.0236 0.45941,0.0691 0.55128,0.10101 0.32734,0.11384 0.8422,0.13787 1.30294,0.0608 0.25725,-0.043 0.62987,-0.0925 0.82804,-0.10999 l 0.36031,-0.0318 -2.57182,2.5625 c -2.57497,2.56563 -3.09329,3.06363 -3.18861,3.06363 -0.0281,0 -0.10544,0.0601 -0.17195,0.13363 -0.0665,0.0735 -0.1515,0.13364 -0.18885,0.13364 -0.0373,0 -0.1231,0.0499 -0.19055,0.111 -0.14784,0.13378 -0.28897,0.21451 -0.85673,0.49 -0.23887,0.1159 -0.52451,0.25792 -0.63476,0.3156 -0.11025,0.0577 -0.30569,0.12824 -0.43431,0.15681 -0.12863,0.0286 -0.35496,0.097 -0.50297,0.152 -0.32771,0.12182 -1.90074,0.18953 -2.6791,0.11531 z"
         style="opacity:1;fill:#000000;fill-opacity:1;stroke:none;stroke-width:1.51522875;stroke-opacity:1" />
      <path
         inkscape:connector-curvature="0"
         id="path828"
         d="m 111.19494,175.88128 c -0.14699,-0.0696 -0.3613,-0.12726 -0.47624,-0.12823 -0.11494,-0.001 -0.2448,-0.0449 -0.28859,-0.0977 -0.0438,-0.0528 -0.17526,-0.11681 -0.29216,-0.14234 -0.11689,-0.0255 -0.28424,-0.10263 -0.37189,-0.17134 -0.0876,-0.0687 -0.21543,-0.12493 -0.28397,-0.12493 -0.0685,0 -0.12462,-0.025 -0.12462,-0.0556 0,-0.0306 -0.15786,-0.1561 -0.35079,-0.27897 -0.42401,-0.27003 -0.40889,-0.25736 -1.13182,-0.94817 -0.60958,-0.5825 -1.19009,-1.28353 -1.19009,-1.43718 0,-0.0498 -0.0451,-0.10795 -0.10022,-0.1291 -0.0551,-0.0212 -0.10023,-0.0763 -0.10023,-0.12253 0,-0.0462 -0.0601,-0.16051 -0.13363,-0.25395 -0.0735,-0.0934 -0.13364,-0.23 -0.13364,-0.30347 0,-0.0842 0.44719,-0.57928 1.21095,-1.34049 l 1.21094,-1.20692 0.11002,0.21579 c 0.0605,0.11869 0.14822,0.34329 0.1949,0.49911 0.0467,0.15583 0.11049,0.28332 0.14178,0.28332 0.0313,0 0.0776,0.0824 0.10287,0.1832 0.048,0.19127 0.0583,0.20523 0.49863,0.67402 0.14943,0.15909 0.27168,0.31695 0.27168,0.35079 0,0.0338 0.0246,0.0615 0.0547,0.0615 0.0301,0 0.1729,0.10687 0.31739,0.23748 0.14448,0.13061 0.3529,0.28035 0.46315,0.33274 0.11025,0.0524 0.24555,0.12404 0.30068,0.15919 0.41159,0.26251 1.23124,0.48659 1.80407,0.49321 0.65099,0.008 1.3002,-0.2035 2.00452,-0.65159 0.39334,-0.25023 8.03701,-7.90119 8.18804,-8.19583 0.0638,-0.12443 0.13504,-0.24127 0.15836,-0.25965 0.096,-0.0757 0.40668,-0.75805 0.40668,-0.89333 0,-0.0803 0.0526,-0.22036 0.11693,-0.31122 0.0926,-0.13076 0.11693,-0.3045 0.11693,-0.83338 0,-0.52887 -0.0244,-0.70261 -0.11693,-0.83338 -0.0643,-0.0909 -0.11693,-0.24466 -0.11693,-0.34178 0,-0.0971 -0.0601,-0.25302 -0.13364,-0.34646 -0.0735,-0.0934 -0.13363,-0.20003 -0.13363,-0.23687 0,-0.0765 -0.47658,-0.69595 -0.73162,-0.95099 -0.25503,-0.25504 -0.87451,-0.73161 -0.95098,-0.73161 -0.0368,0 -0.14344,-0.0601 -0.23687,-0.13364 -0.0934,-0.0735 -0.23349,-0.13382 -0.31122,-0.13405 -0.0777,-2.2e-4 -0.23153,-0.0495 -0.34178,-0.10948 -0.304,-0.16541 -1.19623,-0.19799 -1.57021,-0.0573 -0.16537,0.0622 -0.39088,0.1293 -0.50113,0.1491 -0.11025,0.0198 -0.28026,0.0921 -0.37781,0.1607 -0.0976,0.0686 -0.22628,0.12469 -0.28607,0.12469 -0.0598,0 -0.12498,0.0424 -0.14486,0.0942 -0.0199,0.0518 -0.10162,0.11111 -0.18165,0.13178 -0.08,0.0207 -0.2771,0.15868 -0.43793,0.30671 -0.16082,0.14802 -0.31665,0.26912 -0.34628,0.26912 -0.0296,0 -0.073,0.0601 -0.0963,0.13364 -0.0233,0.0735 -0.0855,0.13363 -0.13814,0.13363 -0.0526,0 -0.0957,0.0256 -0.0957,0.0569 0,0.0741 -1.74018,1.81401 -1.81429,1.81401 -0.0311,0 -0.0566,0.0431 -0.0566,0.0957 0,0.0526 -0.0601,0.11481 -0.13363,0.13814 -0.0735,0.0233 -0.13363,0.0835 -0.13363,0.13364 0,0.0502 -0.0601,0.1103 -0.13364,0.13363 -0.0735,0.0233 -0.13363,0.0835 -0.13363,0.13364 0,0.0502 -0.0601,0.1103 -0.13364,0.13363 -0.0735,0.0233 -0.13363,0.0855 -0.13363,0.13814 0,0.12305 -0.10837,0.1243 -0.15538,0.002 -0.0198,-0.0517 -0.13536,-0.11574 -0.25674,-0.1424 -0.12138,-0.0267 -0.28645,-0.0916 -0.36683,-0.14423 -0.0804,-0.0527 -0.32136,-0.11293 -0.53552,-0.13392 -0.21416,-0.021 -0.42708,-0.0679 -0.47317,-0.10434 -0.16085,-0.12702 -1.24829,-0.14388 -1.6118,-0.025 -0.38988,0.12753 -1.08182,0.15072 -0.82676,0.0277 0.0827,-0.0399 0.15034,-0.1095 0.15034,-0.15473 0,-0.0452 0.0601,-0.0979 0.13363,-0.11717 0.0735,-0.0192 0.13363,-0.0793 0.13363,-0.13363 0,-0.0543 0.0601,-0.11441 0.13364,-0.13363 0.0735,-0.0192 0.13363,-0.0794 0.13363,-0.13364 0,-0.0543 0.0601,-0.11441 0.13364,-0.13363 0.0735,-0.0192 0.13364,-0.0829 0.13364,-0.14143 0,-0.0586 0.0431,-0.10648 0.0957,-0.10648 0.0526,0 0.11481,-0.0601 0.13814,-0.13364 0.0233,-0.0735 0.0835,-0.13363 0.13363,-0.13363 0.0502,0 0.11031,-0.0601 0.13363,-0.13364 0.0233,-0.0735 0.0835,-0.13363 0.13364,-0.13363 0.0502,0 0.11031,-0.0601 0.13364,-0.13364 0.0233,-0.0735 0.0835,-0.13363 0.13363,-0.13363 0.0502,0 0.11031,-0.0601 0.13363,-0.13363 0.0233,-0.0735 0.0835,-0.13364 0.13364,-0.13364 0.0502,0 0.1103,-0.0601 0.13363,-0.13364 0.0233,-0.0735 0.0835,-0.13363 0.13364,-0.13363 0.0502,0 0.11031,-0.0601 0.13363,-0.13363 0.0233,-0.0735 0.0883,-0.13364 0.1444,-0.13364 0.0561,0 0.1177,-0.0601 0.13692,-0.13363 0.0192,-0.0735 0.0565,-0.13364 0.0828,-0.13364 0.0263,0 0.62486,-0.57088 1.33013,-1.26863 0.70529,-0.69775 1.37182,-1.31491 1.4812,-1.37147 0.10938,-0.0566 0.19887,-0.13214 0.19887,-0.16795 0,-0.0358 0.0454,-0.0651 0.10088,-0.0651 0.0555,0 0.15237,-0.0601 0.2153,-0.13363 0.0629,-0.0735 0.14879,-0.13364 0.19079,-0.13364 0.042,0 0.15281,-0.0601 0.24625,-0.13363 0.0934,-0.0735 0.21371,-0.13363 0.26727,-0.13363 0.0536,0 0.16909,-0.0562 0.25673,-0.12493 0.0876,-0.0687 0.255,-0.14581 0.37189,-0.17134 0.1169,-0.0255 0.24837,-0.0896 0.29216,-0.14234 0.0438,-0.0528 0.1741,-0.0959 0.28958,-0.0959 0.11548,0 0.32979,-0.0661 0.47624,-0.14696 0.25132,-0.13869 0.34705,-0.14689 1.70286,-0.14586 1.34973,0.001 1.45267,0.01 1.70285,0.14696 0.14646,0.0802 0.33716,0.14586 0.42377,0.14586 0.0866,0 0.23395,0.0601 0.32739,0.13363 0.0934,0.0735 0.21371,0.13363 0.26727,0.13363 0.0536,0 0.17383,0.0601 0.26727,0.13364 0.0934,0.0735 0.21873,0.13364 0.27844,0.13364 0.0597,0 0.1461,0.0601 0.192,0.13363 0.0459,0.0735 0.12163,0.13363 0.16827,0.13363 0.0466,0 0.1363,0.0601 0.19923,0.13364 0.0629,0.0735 0.15876,0.13363 0.21296,0.13363 0.0542,0 0.13071,0.0601 0.17004,0.13364 0.0393,0.0735 0.0975,0.13363 0.12931,0.13363 0.0629,0 1.20704,1.12525 1.20704,1.18709 0,0.0208 0.0449,0.0855 0.0999,0.14366 0.20909,0.22157 0.43466,0.52864 0.43466,0.59172 0,0.0361 0.0468,0.10457 0.10409,0.15208 0.0572,0.0475 0.14684,0.17898 0.1991,0.29215 0.0523,0.11318 0.12057,0.25088 0.15179,0.306 0.2047,0.36145 0.34683,0.67642 0.34683,0.7686 0,0.059 0.0655,0.24853 0.14555,0.42107 0.1346,0.29009 0.14556,0.41688 0.14556,1.68348 0,1.26659 -0.011,1.39338 -0.14556,1.68347 -0.08,0.17254 -0.14575,0.38302 -0.14599,0.46772 -2.7e-4,0.0847 -0.0602,0.24421 -0.1332,0.35446 -0.073,0.11025 -0.13295,0.25584 -0.13319,0.32355 -2.6e-4,0.0677 -0.0606,0.19954 -0.13407,0.29298 -0.0735,0.0934 -0.13364,0.21094 -0.13364,0.2611 0,0.0502 -0.0601,0.15136 -0.13364,0.22485 -0.0735,0.0735 -0.13363,0.18654 -0.13363,0.2512 0,0.0647 -0.0601,0.15512 -0.13364,0.20102 -0.0735,0.0459 -0.13363,0.12364 -0.13363,0.17276 0,0.0491 -0.0601,0.14373 -0.13363,0.21024 -0.0735,0.0665 -0.13364,0.16032 -0.13364,0.20846 0,0.0481 -0.0601,0.1197 -0.13363,0.15904 -0.0735,0.0393 -0.13364,0.10062 -0.13364,0.1362 0,0.07 -7.6472,7.72622 -7.85741,7.86672 -0.07,0.0468 -0.22499,0.14747 -0.34442,0.22375 -0.11944,0.0763 -0.21716,0.1658 -0.21716,0.19892 0,0.0331 -0.0439,0.0602 -0.0976,0.0602 -0.0537,0 -0.15142,0.0577 -0.21716,0.12821 -0.0657,0.0705 -0.20004,0.1484 -0.29844,0.17307 -0.0984,0.0247 -0.19518,0.0873 -0.21506,0.13906 -0.0199,0.0518 -0.0932,0.0942 -0.16287,0.0942 -0.0697,0 -0.19843,0.0555 -0.28607,0.12328 -0.0876,0.0678 -0.26262,0.14332 -0.38883,0.16783 -0.12621,0.0245 -0.27655,0.0853 -0.33409,0.135 -0.0575,0.0497 -0.24795,0.10902 -0.42314,0.13172 -0.17519,0.0227 -0.40673,0.0869 -0.51452,0.14264 -0.15438,0.0798 -0.44134,0.10019 -1.3519,0.0959 -0.98805,-0.005 -1.19473,-0.0238 -1.42319,-0.13188 z"
         style="opacity:1;fill:#000000;fill-opacity:1;stroke:none;stroke-width:1.51522875;stroke-opacity:1" />
    </g>
  </g>
</svg>
